<svg width="1643" height="847" viewBox="0 0 1643 847" fill="none" xmlns="http://www.w3.org/2000/svg">
<path d="M317.73 731.65L293.33 537.06C283.72 460.45 338.33 398.34 415.39 398.34H544.24" stroke="#0797DC" stroke-width="6" stroke-linecap="round" stroke-linejoin="round"/>
<path d="M625 394.92L641 372.39L636.79 342.14C635.66 340 634.5 337.77 633.31 335.47C545.94 348.47 535.31 385.08 554.93 424.29C410 452.59 346.9 675.05 384.6 780.6C395.34 810.6 403.96 840.6 435.87 840.94" stroke="#0797DC" stroke-width="6" stroke-linecap="round" stroke-linejoin="round"/>
<path d="M670.57 475.79C670.57 475.6 670.57 475.41 670.57 475.22C675.31 475.68 679.91 475.71 684.35 471.87C695.35 462.34 699.25 459.48 699.25 459.48C699.25 459.48 700.25 460.68 702.02 462.71C704.19 458.71 706.45 454.56 708.76 450.36C661.27 413.58 625 394.92 625 394.92L622.32 393L604.88 414.27C604.88 414.27 633.26 433.83 670.57 475.79Z" fill="black"/>
<path d="M900.13 821.06C900.13 821.06 824.13 616.67 833.8 553.33C839.07 518.78 830.8 479.6 819.38 449.33L797.61 450.74L771.55 512.36C773.25 512.78 774.95 513.13 776.65 513.36C776.65 513.36 775.65 519.83 773.19 534.7C771.54 544.61 774.37 545.7 776.61 552.58C779.5 557.21 781.72 562.41 779.28 570.45C778.48 573.08 776.58 597.85 772.28 631.45C780.28 648.45 787.92 666.39 795.08 685.45C841.16 808.37 836.37 821.78 836.37 821.78L900.13 821.06Z" fill="black"/>
<path d="M1157.5 839.33C1152.03 803.33 1113.02 610.1 889.84 440.61C884.84 410.33 872.19 362.67 807.18 340.39" stroke="#0797DC" stroke-width="6" stroke-linecap="round" stroke-linejoin="round"/>
<path d="M851.9 542.57C851.9 542.57 849.5 607.85 863.79 654.78" stroke="#0797DC" stroke-width="8" stroke-linecap="round" stroke-linejoin="round"/>
<path d="M886.88 439.86C887.59 444.12 888.14 448.04 888.67 451.48C894.81 491.3 881.67 517.74 872.98 536.07C896.31 519.57 912.04 488.19 919.98 464.26C910.39 456.58 897.3 447.62 886.88 439.86Z" fill="#0797DC"/>
<path d="M557.24 422.52C540.92 425.85 514.1 433.98 494.77 447.35C508.27 454.71 575.13 494.75 629.77 518.77C630.2 518.52 633.2 513.52 634.7 511.57C604.46 487.59 572.65 453.41 557.24 422.52Z" fill="#0797DC"/>
<path d="M601.25 263.25C601.25 263.25 564.14 273.31 579.16 305C589.6 327 609.42 319.18 621.24 312.51" stroke="#0797DC" stroke-width="6" stroke-linecap="round" stroke-linejoin="round"/>
<path d="M611.15 269.27L622.81 265.36C630.5 270.01 655.9 301.57 664.09 317.21C664.09 317.21 701.38 293.02 759.59 277.55C759.59 277.55 791.28 270.31 805.06 270.89C801.06 238.89 792.88 198.01 778.48 161.46C757.06 107.13 690.78 128.21 681.16 131.46C577.79 166.63 611.05 269.04 611.05 269.04L611.15 269.27Z" stroke="#0797DC" stroke-width="6" stroke-linecap="round" stroke-linejoin="round"/>
<path d="M727.49 403.37C715.05 403.37 703.22 401.3 693.91 397.62C663.71 385.69 657.29 378 646.45 359.86C635.61 341.72 601.64 272.47 601.64 272.47L622.81 265.36C630.5 270.01 655.9 301.57 664.09 317.21C664.09 317.21 701.38 293.02 759.59 277.55C759.59 277.55 791.59 270.23 805.28 270.89C805.28 270.89 811.82 303.43 807.9 335.33" stroke="#0797DC" stroke-width="6" stroke-linecap="round" stroke-linejoin="round"/>
<path d="M604.24 281.52C604.24 281.52 585.12 259.35 571.31 232.86C558.31 207.96 563.7 177.11 585.25 159.11C603.29 144 620.46 148 620.46 148C620.46 148 589.4 116.36 613.89 75.4299C618.177 68.2684 623.881 62.0574 630.652 57.1774C637.424 52.2974 645.12 48.8513 653.27 47.0499C693.47 38.2399 714.27 68.8999 714.27 68.8999C714.27 68.8999 737.37 -20.2901 836.58 4.24993C846.58 6.72993 859.81 17.3099 866.78 24.9099C909 70.9999 829.46 158 781.07 175.42C727.94 194.54 693.77 193.49 672.89 184.55C687.9 189.12 688.45 273.79 604.24 281.52Z" fill="#0797DC"/>
<path d="M757.57 253.95L776.31 303.81L757.05 303.71" stroke="#0797DC" stroke-width="8" stroke-linecap="round" stroke-linejoin="round"/>
<path d="M747.28 347.02C752.51 347.02 756.75 342.78 756.75 337.55C756.75 332.32 752.51 328.08 747.28 328.08C742.05 328.08 737.81 332.32 737.81 337.55C737.81 342.78 742.05 347.02 747.28 347.02Z" fill="#0797DC"/>
<path d="M779.738 258.073C782.642 257.347 784.085 253.114 782.961 248.619C781.837 244.124 778.572 241.068 775.668 241.794C772.764 242.521 771.321 246.753 772.445 251.249C773.569 255.744 776.834 258.799 779.738 258.073Z" fill="#0797DC"/>
<path d="M728.885 269.848C731.789 269.121 733.232 264.889 732.108 260.393C730.984 255.898 727.718 252.843 724.814 253.569C721.911 254.295 720.468 258.528 721.592 263.023C722.716 267.518 725.981 270.574 728.885 269.848Z" fill="#0797DC"/>
<path d="M693.66 229.94C695.462 225.874 698.322 222.366 701.942 219.782C705.562 217.198 709.809 215.633 714.24 215.25" stroke="#0797DC" stroke-width="8" stroke-linecap="round" stroke-linejoin="round"/>
<path d="M762.32 202.32C762.32 202.32 775.96 194.89 782.59 205.9" stroke="#0797DC" stroke-width="8" stroke-linecap="round" stroke-linejoin="round"/>
<path d="M1354 562.9H965.2C962.723 562.901 960.32 563.738 958.378 565.275C956.436 566.812 955.07 568.96 954.5 571.37L900.44 800.19H759.51C759.51 800.19 751.7 840.53 797.24 840.53H1293.63C1296.11 840.529 1298.51 839.692 1300.45 838.155C1302.39 836.618 1303.76 834.47 1304.33 832.06L1364.72 576.43C1365.1 574.813 1365.11 573.132 1364.75 571.51C1364.39 569.889 1363.67 568.371 1362.64 567.069C1361.61 565.767 1360.29 564.716 1358.8 563.994C1357.3 563.272 1355.66 562.898 1354 562.9Z" fill="#0797DC"/>
<path d="M1199.76 206.24H1196.7C1193.94 206.24 1191.7 208.479 1191.7 211.24V219.13C1191.7 221.891 1193.94 224.13 1196.7 224.13H1199.76C1202.52 224.13 1204.76 221.891 1204.76 219.13V211.24C1204.76 208.479 1202.52 206.24 1199.76 206.24Z" fill="black"/>
<path d="M1181.68 206.24H1101.88C1099.12 206.24 1096.88 208.479 1096.88 211.24V219.13C1096.88 221.891 1099.12 224.13 1101.88 224.13H1181.68C1184.44 224.13 1186.68 221.891 1186.68 219.13V211.24C1186.68 208.479 1184.44 206.24 1181.68 206.24Z" fill="#0797DC"/>
<path d="M1189.81 289.34H1101.88C1099.12 289.34 1096.88 291.579 1096.88 294.34V302.23C1096.88 304.992 1099.12 307.23 1101.88 307.23H1189.81C1192.57 307.23 1194.81 304.992 1194.81 302.23V294.34C1194.81 291.579 1192.57 289.34 1189.81 289.34Z" fill="#0797DC"/>
<path d="M1268.53 261.67H1126.64C1123.88 261.67 1121.64 263.908 1121.64 266.67V274.56C1121.64 277.321 1123.88 279.56 1126.64 279.56H1268.53C1271.29 279.56 1273.53 277.321 1273.53 274.56V266.67C1273.53 263.908 1271.29 261.67 1268.53 261.67Z" fill="black"/>
<path d="M1359.07 261.67H1287.03C1284.27 261.67 1282.03 263.908 1282.03 266.67V274.56C1282.03 277.321 1284.27 279.56 1287.03 279.56H1359.07C1361.83 279.56 1364.07 277.321 1364.07 274.56V266.67C1364.07 263.908 1361.83 261.67 1359.07 261.67Z" fill="black"/>
<path d="M1386.84 234.01H1383.78C1381.02 234.01 1378.78 236.249 1378.78 239.01V246.9C1378.78 249.661 1381.02 251.9 1383.78 251.9H1386.84C1389.6 251.9 1391.84 249.661 1391.84 246.9V239.01C1391.84 236.249 1389.6 234.01 1386.84 234.01Z" fill="#0797DC"/>
<path d="M1248.94 233.96H1101.88C1099.12 233.96 1096.88 236.199 1096.88 238.96V246.85C1096.88 249.611 1099.12 251.85 1101.88 251.85H1248.94C1251.7 251.85 1253.94 249.611 1253.94 246.85V238.96C1253.94 236.199 1251.7 233.96 1248.94 233.96Z" fill="#0797DC"/>
<path d="M1295.32 206.24H1215.52C1212.76 206.24 1210.52 208.479 1210.52 211.24V219.13C1210.52 221.891 1212.76 224.13 1215.52 224.13H1295.32C1298.08 224.13 1300.32 221.891 1300.32 219.13V211.24C1300.32 208.479 1298.08 206.24 1295.32 206.24Z" fill="#0797DC"/>
<path d="M1366.76 233.9H1265.97C1263.21 233.9 1260.97 236.138 1260.97 238.9V246.9C1260.97 249.661 1263.21 251.9 1265.97 251.9H1366.76C1369.52 251.9 1371.76 249.661 1371.76 246.9V238.9C1371.76 236.138 1369.52 233.9 1366.76 233.9Z" fill="black"/>
<path d="M1181.68 385.61H1101.88C1099.12 385.61 1096.88 387.848 1096.88 390.61V398.5C1096.88 401.261 1099.12 403.5 1101.88 403.5H1181.68C1184.44 403.5 1186.68 401.261 1186.68 398.5V390.61C1186.68 387.848 1184.44 385.61 1181.68 385.61Z" fill="#0797DC"/>
<path d="M1189.81 468.71H1101.88C1099.12 468.71 1096.88 470.948 1096.88 473.71V481.6C1096.88 484.361 1099.12 486.6 1101.88 486.6H1189.81C1192.57 486.6 1194.81 484.361 1194.81 481.6V473.71C1194.81 470.948 1192.57 468.71 1189.81 468.71Z" fill="#0797DC"/>
<path d="M1268.53 441.05H1126.64C1123.88 441.05 1121.64 443.288 1121.64 446.05V453.94C1121.64 456.701 1123.88 458.94 1126.64 458.94H1268.53C1271.29 458.94 1273.53 456.701 1273.53 453.94V446.05C1273.53 443.288 1271.29 441.05 1268.53 441.05Z" fill="black"/>
<path d="M1359.07 441.05H1287.03C1284.27 441.05 1282.03 443.288 1282.03 446.05V453.94C1282.03 456.701 1284.27 458.94 1287.03 458.94H1359.07C1361.83 458.94 1364.07 456.701 1364.07 453.94V446.05C1364.07 443.288 1361.83 441.05 1359.07 441.05Z" fill="black"/>
<path d="M1386.84 413.38H1383.78C1381.02 413.38 1378.78 415.618 1378.78 418.38V426.27C1378.78 429.031 1381.02 431.27 1383.78 431.27H1386.84C1389.6 431.27 1391.84 429.031 1391.84 426.27V418.38C1391.84 415.618 1389.6 413.38 1386.84 413.38Z" fill="#0797DC"/>
<path d="M1409.68 385.61H1406.62C1403.86 385.61 1401.62 387.848 1401.62 390.61V398.5C1401.62 401.261 1403.86 403.5 1406.62 403.5H1409.68C1412.44 403.5 1414.68 401.261 1414.68 398.5V390.61C1414.68 387.848 1412.44 385.61 1409.68 385.61Z" fill="#0797DC"/>
<path d="M1248.94 413.33H1101.88C1099.12 413.33 1096.88 415.568 1096.88 418.33V426.22C1096.88 428.981 1099.12 431.22 1101.88 431.22H1248.94C1251.7 431.22 1253.94 428.981 1253.94 426.22V418.33C1253.94 415.568 1251.7 413.33 1248.94 413.33Z" fill="#0797DC"/>
<path d="M1295.32 385.61H1196.7C1193.94 385.61 1191.7 387.848 1191.7 390.61V398.5C1191.7 401.261 1193.94 403.5 1196.7 403.5H1295.32C1298.08 403.5 1300.32 401.261 1300.32 398.5V390.61C1300.32 387.848 1298.08 385.61 1295.32 385.61Z" fill="black"/>
<path d="M1392.04 385.61H1312.24C1309.48 385.61 1307.24 387.848 1307.24 390.61V398.5C1307.24 401.261 1309.48 403.5 1312.24 403.5H1392.04C1394.8 403.5 1397.04 401.261 1397.04 398.5V390.61C1397.04 387.848 1394.8 385.61 1392.04 385.61Z" fill="black"/>
<path d="M1199.76 358.8H1196.7C1193.94 358.8 1191.7 361.038 1191.7 363.8V371.69C1191.7 374.451 1193.94 376.69 1196.7 376.69H1199.76C1202.52 376.69 1204.76 374.451 1204.76 371.69V363.8C1204.76 361.038 1202.52 358.8 1199.76 358.8Z" fill="black"/>
<path d="M1181.68 358.8H1101.88C1099.12 358.8 1096.88 361.038 1096.88 363.8V371.69C1096.88 374.451 1099.12 376.69 1101.88 376.69H1181.68C1184.44 376.69 1186.68 374.451 1186.68 371.69V363.8C1186.68 361.038 1184.44 358.8 1181.68 358.8Z" fill="#0797DC"/>
<path d="M1295.32 358.8H1215.52C1212.76 358.8 1210.52 361.038 1210.52 363.8V371.69C1210.52 374.451 1212.76 376.69 1215.52 376.69H1295.32C1298.08 376.69 1300.32 374.451 1300.32 371.69V363.8C1300.32 361.038 1298.08 358.8 1295.32 358.8Z" fill="#0797DC"/>
<path d="M1366.76 413.28H1265.97C1263.21 413.28 1260.97 415.518 1260.97 418.28V426.28C1260.97 429.041 1263.21 431.28 1265.97 431.28H1366.76C1369.52 431.28 1371.76 429.041 1371.76 426.28V418.28C1371.76 415.518 1369.52 413.28 1366.76 413.28Z" fill="black"/>
<path d="M1484.34 735.41C1486.52 734.647 1488.79 734.173 1491.1 734C1494.76 733.736 1498.44 734.249 1501.89 735.505C1505.34 736.761 1508.49 738.733 1511.13 741.29C1513.76 743.847 1515.83 746.932 1517.19 750.343C1518.55 753.755 1519.17 757.415 1519.02 761.085C1518.87 764.754 1517.94 768.35 1516.3 771.637C1514.67 774.923 1512.35 777.827 1509.51 780.156C1506.67 782.486 1503.37 784.19 1499.83 785.155C1496.29 786.121 1492.58 786.327 1488.95 785.76" stroke="#0797DC" stroke-width="6" stroke-linecap="round" stroke-linejoin="round"/>
<path d="M1421.52 738.81L1384.25 693.31" stroke="#0797DC" stroke-width="6" stroke-linecap="round" stroke-linejoin="round"/>
<path d="M1378.78 724.71V810.52C1378.78 818.476 1381.94 826.107 1387.57 831.733C1393.19 837.359 1400.82 840.52 1408.78 840.52H1459.38C1467.34 840.52 1474.97 837.359 1480.59 831.733C1486.22 826.107 1489.38 818.476 1489.38 810.52V724.71H1378.78ZM1423.52 787.54C1423.83 787.718 1424.08 787.975 1424.26 788.284C1424.43 788.593 1424.52 788.944 1424.52 789.3C1424.52 789.83 1424.31 790.339 1423.93 790.714C1423.56 791.089 1423.05 791.3 1422.52 791.3C1422.17 791.305 1421.83 791.219 1421.52 791.05L1401.52 779.05C1401.18 778.888 1400.89 778.632 1400.68 778.312C1400.48 777.991 1400.37 777.62 1400.37 777.24C1400.37 776.86 1400.48 776.488 1400.68 776.168C1400.89 775.847 1401.18 775.591 1401.52 775.43L1421.52 763.43C1421.83 763.261 1422.17 763.174 1422.52 763.18C1423.05 763.18 1423.56 763.391 1423.93 763.766C1424.31 764.141 1424.52 764.649 1424.52 765.18C1424.52 765.536 1424.43 765.886 1424.26 766.196C1424.08 766.505 1423.83 766.762 1423.52 766.94L1406.31 777.26L1423.52 787.54ZM1448.52 757.96L1432.42 798.21C1432.32 798.414 1432.18 798.6 1432.02 798.76C1431.83 798.95 1431.61 799.101 1431.37 799.204C1431.12 799.307 1430.86 799.36 1430.59 799.36C1430.06 799.36 1429.55 799.149 1429.18 798.774C1428.8 798.399 1428.59 797.89 1428.59 797.36C1428.59 797.067 1428.65 796.777 1428.77 796.51L1444.87 756.26C1444.98 756.043 1445.12 755.847 1445.3 755.68C1445.48 755.491 1445.7 755.341 1445.94 755.241C1446.19 755.142 1446.45 755.093 1446.71 755.1C1447.24 755.1 1447.75 755.311 1448.12 755.686C1448.5 756.061 1448.71 756.569 1448.71 757.1C1448.71 757.41 1448.65 757.718 1448.52 758V757.96ZM1475.77 779L1455.77 791C1455.46 791.169 1455.12 791.255 1454.77 791.25C1454.24 791.25 1453.73 791.039 1453.36 790.664C1452.98 790.289 1452.77 789.78 1452.77 789.25C1452.77 788.894 1452.86 788.543 1453.03 788.234C1453.21 787.925 1453.46 787.668 1453.77 787.49L1471 777.23L1453.79 766.91C1453.48 766.732 1453.23 766.475 1453.05 766.166C1452.88 765.856 1452.79 765.506 1452.79 765.15C1452.79 764.886 1452.84 764.625 1452.94 764.381C1453.04 764.137 1453.19 763.916 1453.38 763.73C1453.57 763.542 1453.79 763.392 1454.04 763.291C1454.28 763.19 1454.54 763.138 1454.81 763.14C1455.16 763.134 1455.5 763.221 1455.81 763.39L1475.81 775.39C1476.15 775.551 1476.44 775.807 1476.65 776.128C1476.85 776.448 1476.96 776.82 1476.96 777.2C1476.96 777.58 1476.85 777.951 1476.65 778.272C1476.44 778.592 1476.15 778.848 1475.81 779.01L1475.77 779Z" fill="#0797DC"/>
<path d="M245.2 786C241.786 786.252 238.355 785.828 235.104 784.754C231.854 783.679 228.847 781.975 226.254 779.739C223.662 777.502 221.536 774.777 219.997 771.719C218.458 768.661 217.537 765.329 217.285 761.915C217.034 758.501 217.457 755.07 218.531 751.819C219.606 748.569 221.31 745.562 223.546 742.969C225.783 740.377 228.508 738.251 231.566 736.712C234.624 735.173 237.956 734.252 241.37 734C242.946 733.881 244.529 733.908 246.1 734.08" stroke="#0797DC" stroke-width="6" stroke-linecap="round" stroke-linejoin="round"/>
<path d="M241.81 724.71V810.52C241.81 818.476 244.971 826.107 250.597 831.733C256.223 837.359 263.854 840.52 271.81 840.52H322.42C330.377 840.52 338.007 837.359 343.633 831.733C349.259 826.107 352.42 818.476 352.42 810.52V724.71H241.81ZM286.56 787.54C286.868 787.718 287.123 787.975 287.299 788.284C287.475 788.593 287.565 788.944 287.56 789.3C287.56 789.83 287.349 790.339 286.974 790.714C286.599 791.089 286.09 791.3 285.56 791.3C285.211 791.305 284.866 791.219 284.56 791.05L264.56 779.05C264.216 778.888 263.926 778.632 263.722 778.312C263.519 777.991 263.411 777.62 263.411 777.24C263.411 776.86 263.519 776.488 263.722 776.168C263.926 775.847 264.216 775.591 264.56 775.43L284.56 763.43C284.866 763.261 285.211 763.174 285.56 763.18C286.09 763.18 286.599 763.391 286.974 763.766C287.349 764.141 287.56 764.649 287.56 765.18C287.565 765.536 287.475 765.886 287.299 766.196C287.123 766.505 286.868 766.762 286.56 766.94L269.35 777.26L286.56 787.54ZM328.74 779.04L308.74 791.04C308.434 791.209 308.09 791.295 307.74 791.29C307.475 791.295 307.213 791.246 306.968 791.144C306.724 791.043 306.503 790.891 306.32 790.7C306.13 790.516 305.979 790.295 305.878 790.051C305.776 789.807 305.726 789.544 305.73 789.28C305.725 788.924 305.815 788.573 305.991 788.264C306.167 787.955 306.422 787.698 306.73 787.52L323.94 777.21L306.73 766.89C306.422 766.712 306.167 766.455 305.991 766.146C305.815 765.836 305.725 765.486 305.73 765.13C305.73 764.6 305.941 764.091 306.316 763.716C306.691 763.341 307.2 763.13 307.73 763.13C308.08 763.124 308.424 763.211 308.73 763.38L328.73 775.38C329.074 775.541 329.364 775.797 329.568 776.118C329.771 776.438 329.879 776.81 329.879 777.19C329.879 777.57 329.771 777.941 329.568 778.262C329.364 778.582 329.074 778.838 328.73 779L328.74 779.04Z" fill="#0797DC"/>
<path d="M427.34 690.13L413.67 665.32" stroke="#0797DC" stroke-width="6" stroke-linecap="round" stroke-linejoin="round"/>
<path d="M396.99 692.78H472.76" stroke="#0797DC" stroke-width="6" stroke-linecap="round" stroke-linejoin="round"/>
<path d="M462.27 773.58C461.308 772.609 460.039 772.003 458.68 771.864C457.321 771.725 455.956 772.062 454.817 772.818C453.679 773.573 452.838 774.7 452.438 776.007C452.038 777.313 452.104 778.718 452.625 779.981C453.145 781.244 454.088 782.288 455.292 782.933C456.496 783.579 457.887 783.787 459.227 783.521C460.568 783.255 461.774 782.532 462.641 781.476C463.508 780.42 463.981 779.096 463.98 777.73C463.991 776.958 463.845 776.192 463.551 775.479C463.257 774.766 462.821 774.119 462.27 773.58Z" fill="#0797DC"/>
<path d="M458.11 764.82C459.47 764.83 460.791 764.367 461.847 763.511C462.904 762.655 463.63 761.458 463.903 760.126C464.175 758.794 463.977 757.408 463.341 756.206C462.705 755.004 461.672 754.06 460.418 753.535C459.163 753.01 457.766 752.937 456.463 753.328C455.161 753.719 454.035 754.55 453.277 755.679C452.52 756.809 452.178 758.166 452.309 759.519C452.441 760.873 453.039 762.138 454 763.1C454.533 763.65 455.172 764.086 455.878 764.382C456.585 764.678 457.344 764.827 458.11 764.82Z" fill="#0797DC"/>
<path d="M462.27 800.67C463.24 799.708 463.846 798.44 463.986 797.081C464.125 795.722 463.788 794.358 463.033 793.219C462.279 792.081 461.152 791.24 459.847 790.839C458.541 790.439 457.136 790.504 455.873 791.023C454.61 791.542 453.566 792.484 452.919 793.687C452.273 794.89 452.064 796.28 452.328 797.62C452.591 798.96 453.312 800.167 454.367 801.035C455.421 801.903 456.744 802.378 458.11 802.38C458.883 802.393 459.651 802.248 460.367 801.954C461.082 801.66 461.73 801.223 462.27 800.67Z" fill="#0797DC"/>
<path d="M480.21 710.88L466.92 693.59H402.83L389.54 710.88C388.266 712.474 387.562 714.449 387.54 716.49V821.75C387.591 823.435 388.074 825.078 388.942 826.523C389.811 827.967 391.036 829.165 392.5 830C396.61 832.56 401.85 836.52 402.22 840.31H467.53C467.89 836.52 473.13 832.56 477.24 830C478.701 829.159 479.922 827.957 480.786 826.509C481.649 825.061 482.126 823.415 482.17 821.73V716.49C482.155 714.454 481.466 712.482 480.21 710.88ZM452.39 731.07L459.39 719.39C459.486 719.204 459.629 719.047 459.804 718.933C459.98 718.819 460.181 718.753 460.39 718.74C460.609 718.744 460.822 718.807 461.008 718.921C461.195 719.035 461.347 719.197 461.45 719.39L468.45 731.07C468.552 731.249 468.604 731.453 468.6 731.66C468.603 731.813 468.574 731.964 468.516 732.105C468.457 732.246 468.37 732.374 468.26 732.48C468.153 732.591 468.024 732.68 467.881 732.74C467.738 732.8 467.585 732.831 467.43 732.83C467.226 732.824 467.027 732.766 466.852 732.661C466.676 732.556 466.531 732.407 466.43 732.23L460.43 722.23L454.43 732.23C454.328 732.407 454.183 732.554 454.008 732.659C453.833 732.764 453.634 732.823 453.43 732.83C453.275 732.831 453.122 732.8 452.979 732.74C452.836 732.68 452.707 732.591 452.6 732.48C452.489 732.374 452.4 732.247 452.34 732.106C452.28 731.965 452.249 731.813 452.25 731.66C452.243 731.454 452.291 731.25 452.39 731.07ZM452.85 735.47C453.049 735.322 453.292 735.245 453.54 735.25C453.695 735.249 453.848 735.279 453.991 735.339C454.134 735.4 454.263 735.488 454.37 735.6C454.481 735.707 454.568 735.836 454.627 735.979C454.685 736.122 454.714 736.276 454.71 736.43C454.716 736.573 454.692 736.716 454.639 736.849C454.585 736.981 454.504 737.101 454.4 737.2L453.96 737.63C453.406 738.168 452.967 738.814 452.672 739.527C452.376 740.241 452.229 741.007 452.24 741.78C452.207 742.499 452.326 743.218 452.59 743.888C452.854 744.558 453.256 745.166 453.77 745.67C454.052 745.9 454.406 746.024 454.77 746.02C454.983 746.016 455.189 745.943 455.358 745.814C455.527 745.684 455.65 745.504 455.71 745.3L458.1 738.08C458.316 737.393 458.674 736.759 459.15 736.22C459.471 735.89 459.858 735.631 460.285 735.459C460.712 735.287 461.17 735.205 461.63 735.22C462.105 735.218 462.574 735.313 463.011 735.499C463.448 735.685 463.842 735.957 464.17 736.3C464.889 737.023 465.451 737.886 465.821 738.836C466.191 739.785 466.361 740.801 466.32 741.82C466.326 743.024 466.064 744.215 465.554 745.306C465.044 746.397 464.298 747.362 463.37 748.13C463.275 748.21 463.165 748.271 463.047 748.309C462.929 748.347 462.804 748.361 462.68 748.35C462.526 748.351 462.373 748.322 462.231 748.263C462.088 748.205 461.959 748.119 461.85 748.01C461.741 747.901 461.655 747.772 461.596 747.629C461.538 747.487 461.509 747.334 461.51 747.18C461.502 747.035 461.526 746.89 461.579 746.756C461.633 746.621 461.715 746.5 461.82 746.4L462.26 745.97C462.813 745.431 463.25 744.785 463.544 744.072C463.838 743.358 463.983 742.592 463.97 741.82C464.005 741.101 463.888 740.383 463.626 739.712C463.364 739.042 462.963 738.435 462.45 737.93C462.167 737.701 461.814 737.577 461.45 737.58C461.237 737.584 461.031 737.656 460.862 737.786C460.693 737.915 460.57 738.095 460.51 738.3L458.11 745.52C457.909 746.202 457.568 746.836 457.11 747.38C456.789 747.709 456.402 747.968 455.975 748.141C455.548 748.313 455.09 748.394 454.63 748.38C454.156 748.381 453.686 748.286 453.249 748.101C452.812 747.915 452.418 747.643 452.09 747.3C451.371 746.577 450.809 745.714 450.439 744.764C450.069 743.814 449.899 742.798 449.94 741.78C449.929 740.578 450.184 739.389 450.687 738.298C451.19 737.207 451.929 736.241 452.85 735.47ZM452.3 753.14C453.644 751.791 455.415 750.949 457.31 750.76C459.205 750.57 461.108 751.043 462.693 752.099C464.278 753.155 465.448 754.728 466.003 756.55C466.558 758.372 466.464 760.331 465.737 762.091C465.009 763.851 463.694 765.305 462.015 766.204C460.336 767.103 458.397 767.392 456.529 767.022C454.661 766.651 452.979 765.644 451.77 764.172C450.561 762.7 449.9 760.854 449.9 758.95C449.882 757.869 450.085 756.795 450.498 755.796C450.911 754.797 451.524 753.893 452.3 753.14ZM450.24 804.39C450.08 804.224 449.972 804.016 449.929 803.79C449.886 803.564 449.91 803.33 449.999 803.117C450.087 802.905 450.235 802.723 450.426 802.593C450.616 802.464 450.84 802.393 451.07 802.39H452.36C450.997 801.055 450.14 799.287 449.936 797.39C449.731 795.493 450.193 793.584 451.241 791.99C452.289 790.395 453.858 789.214 455.681 788.649C457.503 788.084 459.466 788.17 461.232 788.892C462.998 789.613 464.459 790.927 465.364 792.606C466.269 794.286 466.562 796.228 466.193 798.1C465.824 799.973 464.817 801.658 463.342 802.87C461.868 804.081 460.018 804.742 458.11 804.74H451.11C450.948 804.747 450.787 804.72 450.637 804.659C450.487 804.599 450.352 804.507 450.24 804.39ZM468.53 808.84L461.53 820.52C461.427 820.713 461.275 820.874 461.088 820.989C460.902 821.103 460.689 821.165 460.47 821.17C460.261 821.157 460.06 821.09 459.884 820.977C459.709 820.863 459.566 820.705 459.47 820.52L452.47 808.84C452.368 808.66 452.316 808.456 452.32 808.25C452.319 808.096 452.35 807.945 452.41 807.803C452.47 807.662 452.559 807.535 452.67 807.43C452.776 807.316 452.905 807.226 453.048 807.166C453.191 807.106 453.345 807.076 453.5 807.08C453.704 807.087 453.903 807.145 454.078 807.25C454.253 807.355 454.398 807.503 454.5 807.68L460.5 817.68L466.5 807.68C466.601 807.502 466.746 807.354 466.922 807.249C467.097 807.144 467.296 807.086 467.5 807.08C467.81 807.082 468.106 807.207 468.324 807.425C468.543 807.644 468.667 807.94 468.67 808.25C468.677 808.455 468.629 808.659 468.53 808.84ZM473.06 785.61C472.952 785.72 472.823 785.807 472.68 785.866C472.537 785.924 472.384 785.953 472.23 785.95H458.11C456.211 785.948 454.372 785.287 452.905 784.082C451.439 782.876 450.435 781.199 450.066 779.337C449.697 777.474 449.985 775.541 450.88 773.867C451.776 772.193 453.224 770.881 454.978 770.154C456.733 769.428 458.684 769.332 460.501 769.883C462.318 770.434 463.888 771.597 464.944 773.176C465.999 774.754 466.475 776.649 466.29 778.539C466.105 780.429 465.271 782.196 463.93 783.54L463.87 783.6H472.23C472.385 783.599 472.538 783.629 472.681 783.689C472.824 783.75 472.953 783.838 473.06 783.95C473.172 784.057 473.261 784.186 473.321 784.328C473.382 784.471 473.412 784.625 473.41 784.78C473.41 784.935 473.379 785.088 473.319 785.23C473.259 785.373 473.171 785.502 473.06 785.61Z" fill="#0797DC"/>
<path d="M728.2 413.19C728.61 400.26 728.41 379.91 723.82 371.02C716.53 356.91 723.33 341.85 738.24 357.26C746.74 366.04 750.91 377.69 752.93 386.08" stroke="#0797DC" stroke-width="6" stroke-linecap="round" stroke-linejoin="round"/>
<path d="M854.1 392.44C868.498 392.44 880.17 380.768 880.17 366.37C880.17 351.972 868.498 340.3 854.1 340.3C839.702 340.3 828.03 351.972 828.03 366.37C828.03 380.768 839.702 392.44 854.1 392.44Z" stroke="#0797DC" stroke-width="6" stroke-linecap="round" stroke-linejoin="round"/>
<path d="M685.24 843.52C761.44 837.83 776.6 579.29 779.24 570.46C784.53 553.02 767.92 548.93 770.1 535.12C772.28 521.31 770.59 515.12 770.59 515.12C734.82 509.3 700.08 464.32 700.08 464.32C700.08 464.32 696.48 466.95 686.23 475.71C675.98 484.47 664.54 471.01 652.84 484.43C645.12 493.38 561 634.6 561 634.6" stroke="#0797DC" stroke-width="6" stroke-linecap="round" stroke-linejoin="round"/>
<path d="M773.19 534.71C775.67 519.84 776.65 513.37 776.65 513.37C738.56 507.51 699.28 459.48 699.28 459.48C699.28 459.48 695.4 462.34 684.38 471.87C679.94 475.71 675.38 475.68 670.6 475.22C667.23 516.93 742.05 554.06 777.49 555.81C775.23 545.79 771.32 546 773.19 534.71Z" fill="#0797DC"/>
<path d="M511.48 610.91C511.48 610.91 556.58 571.99 582.76 596.51" stroke="#0797DC" stroke-width="6" stroke-linecap="round" stroke-linejoin="round"/>
<path d="M684.44 495.72L760 539.65L797.82 450.23C834.31 450.29 834.15 430.47 826.51 429.79C818.87 429.11 782.18 434.26 782.18 434.26C782.18 434.26 783.37 431.59 813.18 425.93C842.99 420.27 837.39 403.66 830.98 403.21C824.57 402.76 777.2 414.63 777.2 414.63L817.9 400.1C832.39 395.5 832.9 381.46 825.33 379.48C820.33 378.17 793.67 386.23 772.57 393.61C772.57 393.61 797.93 380.61 809.96 372.75C821.99 364.89 813.58 354.64 806.55 355.28C799.52 355.92 750.68 388.58 741.38 396.67C732.08 404.76 684.44 495.72 684.44 495.72Z" stroke="#0797DC" stroke-width="6" stroke-linecap="round" stroke-linejoin="round"/>
<path d="M635.24 734.65C636.614 734.325 638.012 734.108 639.42 734C643.241 733.722 647.076 734.289 650.652 735.662C654.229 737.034 657.459 739.178 660.113 741.941C662.767 744.704 664.779 748.018 666.007 751.646C667.234 755.275 667.647 759.13 667.216 762.936C666.785 766.743 665.52 770.408 663.511 773.67C661.503 776.932 658.8 779.711 655.595 781.81C652.39 783.909 648.762 785.276 644.969 785.813C641.177 786.351 637.312 786.046 633.65 784.92" stroke="#0797DC" stroke-width="6" stroke-linecap="round" stroke-linejoin="round"/>
<path d="M527.1 724.71V810.52C527.1 818.476 530.261 826.107 535.887 831.733C541.513 837.359 549.143 840.52 557.1 840.52H607.7C615.657 840.52 623.287 837.359 628.913 831.733C634.539 826.107 637.7 818.476 637.7 810.52V724.71H527.1ZM571.84 787.54C572.148 787.718 572.403 787.975 572.579 788.284C572.755 788.593 572.845 788.944 572.84 789.3C572.84 789.83 572.629 790.339 572.254 790.714C571.879 791.089 571.37 791.3 570.84 791.3C570.491 791.305 570.146 791.219 569.84 791.05L549.84 779.05C549.496 778.888 549.206 778.632 549.002 778.312C548.799 777.991 548.691 777.62 548.691 777.24C548.691 776.86 548.799 776.488 549.002 776.168C549.206 775.847 549.496 775.591 549.84 775.43L569.84 763.43C570.146 763.261 570.491 763.174 570.84 763.18C571.104 763.18 571.365 763.232 571.609 763.333C571.853 763.434 572.074 763.583 572.26 763.77C572.451 763.953 572.603 764.174 572.704 764.418C572.806 764.662 572.855 764.925 572.85 765.19C572.855 765.546 572.765 765.896 572.589 766.206C572.413 766.515 572.158 766.772 571.85 766.95L554.64 777.27L571.84 787.54ZM596.84 757.96L580.74 798.21C580.634 798.414 580.496 798.6 580.33 798.76C580.144 798.95 579.921 799.101 579.676 799.204C579.43 799.307 579.166 799.36 578.9 799.36C578.37 799.36 577.861 799.149 577.486 798.774C577.111 798.399 576.9 797.89 576.9 797.36C576.899 797.068 576.957 796.779 577.07 796.51L593.17 756.26C593.282 756.045 593.427 755.849 593.6 755.68C593.783 755.492 594.002 755.344 594.245 755.244C594.487 755.144 594.748 755.095 595.01 755.1C595.54 755.1 596.049 755.311 596.424 755.686C596.799 756.061 597.01 756.569 597.01 757.1C597.018 757.408 596.964 757.714 596.85 758L596.84 757.96ZM624.09 779L604.09 791C603.784 791.169 603.439 791.255 603.09 791.25C602.56 791.25 602.051 791.039 601.676 790.664C601.301 790.289 601.09 789.78 601.09 789.25C601.085 788.894 601.175 788.543 601.351 788.234C601.527 787.925 601.782 787.668 602.09 787.49L619.29 777.18L602.09 766.86C601.782 766.682 601.527 766.425 601.351 766.116C601.175 765.806 601.085 765.456 601.09 765.1C601.085 764.835 601.134 764.572 601.236 764.328C601.337 764.083 601.489 763.863 601.68 763.68C601.866 763.493 602.087 763.344 602.331 763.243C602.575 763.142 602.836 763.09 603.1 763.09C603.449 763.084 603.794 763.171 604.1 763.34L624.1 775.34C624.444 775.501 624.734 775.757 624.938 776.078C625.141 776.398 625.249 776.77 625.249 777.15C625.249 777.53 625.141 777.901 624.938 778.222C624.734 778.542 624.444 778.798 624.1 778.96L624.09 779Z" fill="#0797DC"/>
<path d="M3 843.03H1639.48" stroke="#0797DC" stroke-width="6" stroke-linecap="round" stroke-linejoin="round"/>
<path d="M853.73 417L848.19 331.37L737.82 338.52L741.57 396.46C751.38 388.07 799.57 355.89 806.52 355.26C813.47 354.63 821.96 364.88 809.93 372.73C797.9 380.58 772.54 393.59 772.54 393.59C793.64 386.21 820.33 378.15 825.3 379.46C832.88 381.46 832.36 395.46 817.87 400.08L777.17 414.61C777.17 414.61 824.54 402.74 830.95 403.19C837.36 403.64 842.95 420.25 813.15 425.91C783.35 431.57 782.15 434.24 782.15 434.24C782.15 434.24 818.85 429.08 826.48 429.77C834.11 430.46 834.28 450.27 797.79 450.21L797.58 450.7L825.7 448.88C829.635 448.629 833.481 447.606 837.02 445.867C840.558 444.129 843.72 441.71 846.323 438.75C848.926 435.789 850.92 432.344 852.191 428.612C853.462 424.88 853.985 420.934 853.73 417Z" fill="#0797DC"/>
</svg>
