<svg width="55" height="60" viewBox="0 0 55 60" fill="none" xmlns="http://www.w3.org/2000/svg">
<path d="M54.686 6.40818L21.7393 0L15.3311 32.9468L48.2778 39.3549L54.686 6.40818Z" fill="#A2DBFF"/>
<path d="M24.336 10.6398C24.377 10.4484 24.4897 10.28 24.6508 10.1689C24.812 10.0579 25.0095 10.0126 25.2029 10.0424L25.2472 10.0506L48.5953 15.0629C48.7925 15.1027 48.9661 15.2184 49.0789 15.385C49.1916 15.5516 49.2344 15.7559 49.198 15.9538C49.1615 16.1516 49.0488 16.3273 48.8842 16.4429C48.7195 16.5584 48.516 16.6047 48.3175 16.5717L48.2733 16.5635L24.9252 11.5512C24.8266 11.5301 24.7332 11.4897 24.6503 11.4325C24.5673 11.3752 24.4965 11.3022 24.4418 11.2176C24.387 11.1329 24.3495 11.0383 24.3314 10.9392C24.3132 10.8401 24.3148 10.7383 24.336 10.6398Z" fill="black"/>
<path d="M23.4922 15.0128C23.5333 14.8215 23.6459 14.6531 23.807 14.542C23.9681 14.431 24.1655 14.3857 24.3589 14.4154L24.4034 14.4236L46.9332 19.2569C47.1301 19.2969 47.3034 19.4127 47.4159 19.5792C47.5284 19.7457 47.5711 19.9498 47.5347 20.1474C47.4984 20.3451 47.3859 20.5206 47.2216 20.6362C47.0572 20.7518 46.854 20.7983 46.6557 20.7657L46.6114 20.7575L24.0817 15.9242C23.9831 15.9031 23.8897 15.8628 23.8067 15.8055C23.7237 15.7483 23.6528 15.6753 23.5981 15.5906C23.5433 15.506 23.5058 15.4114 23.4877 15.3122C23.4695 15.2131 23.471 15.1113 23.4922 15.0128Z" fill="black"/>
<path d="M22.0347 19.4881C22.0758 19.2968 22.1884 19.1284 22.3495 19.0174C22.5106 18.9063 22.708 18.861 22.9014 18.8907L22.9457 18.8989L40.2074 22.607C40.4049 22.6465 40.579 22.7622 40.692 22.9289C40.805 23.0957 40.8478 23.3002 40.8113 23.4983C40.7748 23.6964 40.6619 23.8722 40.4969 23.9877C40.3319 24.1033 40.128 24.1493 39.9294 24.1158L39.8852 24.1076L22.6234 20.3995C22.5249 20.3784 22.4316 20.338 22.3487 20.2807C22.2658 20.2234 22.195 20.1504 22.1403 20.0658C22.0857 19.9811 22.0482 19.8866 22.0301 19.7874C22.012 19.6883 22.0136 19.5866 22.0347 19.4881Z" fill="black"/>
<path d="M30.7434 15.8194L0 29.2566L13.4372 60L44.1806 46.5628L30.7434 15.8194Z" fill="#0797DC"/>
<path d="M25.997 30.652C26.1806 30.5808 26.3846 30.5829 26.5667 30.6579C26.7488 30.733 26.8951 30.8751 26.9752 31.055C27.0554 31.235 27.0633 31.4388 26.9973 31.6244C26.9313 31.8099 26.7964 31.963 26.6207 32.0519L26.5795 32.0703L12.0796 38.0288C11.8963 38.0987 11.6932 38.0958 11.512 38.0205C11.3309 37.9453 11.1854 37.8035 11.1055 37.6243C11.0257 37.4451 11.0175 37.2422 11.0826 37.0571C11.1478 36.8721 11.2814 36.719 11.4559 36.6295L11.4971 36.611L25.997 30.652Z" fill="black"/>
<path d="M21.2408 39.0652C21.4255 38.9895 21.6324 38.9887 21.8177 39.063C22.0029 39.1373 22.1519 39.2809 22.233 39.4633C22.3141 39.6456 22.3209 39.8524 22.252 40.0398C22.1832 40.2271 22.044 40.3802 21.8641 40.4666L21.8229 40.485L15.0205 43.2725C14.8363 43.3461 14.6308 43.3455 14.447 43.2709C14.2633 43.1963 14.1155 43.0534 14.0349 42.8722C13.9542 42.691 13.9468 42.4856 14.0143 42.2991C14.0817 42.1126 14.2188 41.9595 14.3968 41.8718L14.4379 41.8534L21.2408 39.0652Z" fill="black"/>
<path d="M17.8495 19.7771L17.4915 21.6183L30.3546 16.8362L40.3537 37.806L42.1693 38.1384L31.1474 14.8159L17.8495 19.7771Z" fill="white"/>
</svg>
